<svg xmlns="http://www.w3.org/2000/svg" xmlns:xlink="http://www.w3.org/1999/xlink" version="1.1" x="0px" y="0px" viewBox="0 0 100 125" enable-background="new 0 0 100 100" xml:space="preserve"><g><path fill="#000000" d="M82.371,76.603c0-21.277-8.524-20.285-19.401-21.277c-0.089,3.895-5.86,7.038-12.972,7.038   s-12.884-3.144-12.969-7.038c-10.88,0.993-19.4,0-19.4,21.277c0,10.64,7.775,11.163,17.956,11.163c1.109,0,2.249-0.008,3.411-0.008   h16.138l1.957-5.377c-1.584-1.967-2.535-4.465-2.535-7.18c0-6.324,5.145-11.47,11.47-11.47c6.323,0,11.468,5.146,11.468,11.47   c0,2.715-0.951,5.213-2.535,7.18l1.493,4.102C80.117,85.121,82.371,82.327,82.371,76.603z"/><path fill="#000000" d="M53.56,35.24c-0.988,0.428-2.252,0.663-3.559,0.663c-1.309,0-2.573-0.235-3.56-0.663l-7.875-3.411   l-5.879-2.545c-0.324,1.346-0.501,2.75-0.501,4.195c0,9.839,7.978,24.636,17.817,24.636c9.842,0,17.817-14.798,17.817-24.636   c0-1.446-0.177-2.85-0.503-4.197l-5.879,2.547L53.56,35.24z"/><path d="M26.236,16.877l1.604,0.693l-0.135,1.077c-0.615,0.105-1.083,0.64-1.083,1.282c0,0.58,0.378,1.072,0.901,1.239   l-0.972,13.633c-0.041,0.57,0.072,1.476,0.253,2.018l0.79,2.369c0.089,0.271,0.208,0.407,0.327,0.407   c0.117,0,0.236-0.136,0.327-0.407l0.79-2.369c0.18-0.542,0.296-1.447,0.253-2.018l-0.972-13.633   c0.521-0.168,0.901-0.659,0.901-1.239c0-0.642-0.468-1.177-1.084-1.282l-0.124-1.002l3.701,1.604l1.815,0.785v6.996l5.989,2.593   l7.875,3.411c0.717,0.31,1.66,0.465,2.605,0.465c0.943,0,1.887-0.155,2.604-0.465l7.877-3.411l5.99-2.595v-6.994l1.812-0.785   l5.479-2.372c1.432-0.621,1.432-1.635,0-2.255L52.604,5.465C51.888,5.155,50.944,5,50.001,5c-0.945,0-1.889,0.155-2.605,0.465   l-21.159,9.158C24.805,15.242,24.805,16.256,26.236,16.877z"/><path d="M68.928,86.296c-0.445,0.117-0.901,0.205-1.364,0.268c-0.429,0.058-0.863,0.091-1.304,0.101   c-0.078,0.001-0.156,0.005-0.234,0.005c-0.08,0-0.158-0.004-0.236-0.005c-0.44-0.01-0.876-0.043-1.303-0.101   c-0.464-0.063-0.92-0.15-1.364-0.268c-1.54-0.402-2.951-1.119-4.168-2.075l-2.839,7.8c-0.123,0.34-0.013,0.552,0.247,0.552   c0.073,0,0.16-0.018,0.255-0.053l3.158-1.176c0.104-0.039,0.213-0.057,0.322-0.057c0.353,0,0.71,0.188,0.886,0.496l1.662,2.93   C62.755,94.904,62.884,95,63.005,95c0.136,0,0.263-0.116,0.346-0.346l1.407-3.863l0.634-1.741l0.634-1.74l0.633,1.74l0.634,1.741   l1.405,3.863C68.78,94.884,68.908,95,69.043,95c0.122,0,0.251-0.096,0.36-0.287l1.662-2.93c0.175-0.308,0.533-0.496,0.886-0.496   c0.109,0,0.219,0.018,0.322,0.057l3.157,1.176c0.097,0.035,0.182,0.053,0.255,0.053c0.261,0,0.371-0.212,0.248-0.552l-2.839-7.8   C71.877,85.177,70.466,85.894,68.928,86.296z"/><path d="M58.913,80.855c0.278,0.35,0.582,0.679,0.909,0.984c0.661,0.617,1.414,1.14,2.237,1.539   c0.47,0.228,0.961,0.415,1.471,0.561c0.443,0.126,0.9,0.219,1.368,0.277c0.369,0.045,0.745,0.071,1.127,0.071   c0.381,0,0.755-0.026,1.125-0.071c0.469-0.059,0.925-0.151,1.368-0.277c0.509-0.146,1.002-0.333,1.471-0.561   c0.823-0.399,1.576-0.922,2.238-1.539c0.325-0.306,0.629-0.635,0.908-0.984c0.305-0.384,0.581-0.793,0.822-1.224   c0.734-1.312,1.154-2.821,1.154-4.431c0-5.02-4.069-9.088-9.087-9.088c-5.021,0-9.089,4.068-9.089,9.088   c0,1.609,0.42,3.119,1.154,4.431C58.332,80.063,58.607,80.472,58.913,80.855z M60.745,73.854c0.601-2.36,2.733-4.107,5.28-4.107   c2.546,0,4.679,1.747,5.277,4.107c0.109,0.432,0.176,0.881,0.176,1.347c0,0.302-0.031,0.595-0.078,0.885   c-0.05,0.3-0.122,0.591-0.218,0.874c-0.108,0.315-0.241,0.618-0.402,0.904c-0.12,0.217-0.258,0.42-0.407,0.615   c-0.448,0.597-1.015,1.098-1.668,1.468c-0.793,0.448-1.706,0.707-2.68,0.707c-0.976,0-1.889-0.259-2.681-0.707   c-0.653-0.37-1.22-0.871-1.67-1.468c-0.147-0.195-0.285-0.398-0.407-0.615c-0.161-0.286-0.294-0.589-0.401-0.904   c-0.096-0.283-0.169-0.574-0.218-0.875c-0.047-0.289-0.077-0.582-0.077-0.884C60.571,74.735,60.636,74.286,60.745,73.854z"/><polygon points="63.172,75.237 63.922,75.969 64.119,76.161 64.146,76.188 63.922,77.499 63.703,78.772 66.025,77.552    68.346,78.772 68.126,77.499 67.902,76.188 67.931,76.161 68.126,75.969 68.877,75.237 69.715,74.419 69.78,74.357 67.185,73.98    67.1,73.809 66.025,71.629 64.948,73.809 64.864,73.98 62.27,74.357 62.334,74.419  "/></g><text x="0" y="115" fill="#000000" font-size="5px" font-weight="bold" font-family="'Helvetica Neue', Helvetica, Arial-Unicode, Arial, Sans-serif">Created by Wilson Joseph</text><text x="0" y="120" fill="#000000" font-size="5px" font-weight="bold" font-family="'Helvetica Neue', Helvetica, Arial-Unicode, Arial, Sans-serif">from the Noun Project</text></svg>