<svg xmlns="http://www.w3.org/2000/svg" data-name="Icon Set" viewBox="0 0 24 30" x="0px" y="0px"><title>Portfolio</title><path d="M20,6H16V4a2,2,0,0,0-2-2H10A2,2,0,0,0,8,4V6H4A2,2,0,0,0,2,8V19a2,2,0,0,0,2,2H20a2,2,0,0,0,2-2V8A2,2,0,0,0,20,6ZM16,7V20H8V7ZM10,4h4V6H10ZM3,19V8A1,1,0,0,1,4,7H7V20H4A1,1,0,0,1,3,19Zm18,0a1,1,0,0,1-1,1H17V7h3a1,1,0,0,1,1,1Z"/><text x="0" y="39" fill="#000000" font-size="5px" font-weight="bold" font-family="'Helvetica Neue', Helvetica, Arial-Unicode, Arial, Sans-serif">Created by Nathan Gathright</text><text x="0" y="44" fill="#000000" font-size="5px" font-weight="bold" font-family="'Helvetica Neue', Helvetica, Arial-Unicode, Arial, Sans-serif">from the Noun Project</text></svg>